<svg width="22" height="22" viewBox="0 0 22 22" fill="none" xmlns="http://www.w3.org/2000/svg">
<path d="M9.74267 6.67405C9.73629 6.46211 9.79339 6.2531 9.90663 6.07383C10.0199 5.89456 10.1841 5.75322 10.3782 5.66793C10.5723 5.58264 10.7875 5.5573 10.9962 5.59516C11.2048 5.63302 11.3973 5.73235 11.5491 5.8804C11.7009 6.02846 11.805 6.21849 11.848 6.42611C11.8911 6.63374 11.8711 6.84948 11.7907 7.04567C11.7102 7.24186 11.573 7.40955 11.3966 7.52721C11.2202 7.64487 11.0127 7.70715 10.8007 7.70605C10.663 7.70925 10.5262 7.68493 10.3981 7.63452C10.27 7.58412 10.1532 7.50864 10.0547 7.41252C9.95613 7.31639 9.87777 7.20156 9.82419 7.07475C9.77061 6.94794 9.7429 6.81171 9.74267 6.67405ZM9.81467 8.51705H11.7907V15.956H9.81467V8.51705Z" fill="#204F38"/>
<path d="M10.8054 1.70702C12.954 1.7079 15.0359 2.45369 16.6963 3.81733C18.3568 5.18098 19.4931 7.07814 19.9117 9.1856C20.3303 11.2931 20.0052 13.4805 18.9919 15.3752C17.9787 17.2699 16.3398 18.7546 14.3546 19.5766C12.3694 20.3985 10.1607 20.5067 8.10462 19.8828C6.04857 19.2589 4.27243 17.9415 3.07877 16.1549C1.88511 14.3684 1.34779 12.2232 1.55832 10.0849C1.76886 7.94663 2.71424 5.94747 4.23341 4.42802C5.09447 3.56238 6.1187 2.87616 7.2468 2.4091C8.3749 1.94203 9.58445 1.7034 10.8054 1.70702ZM10.8054 0.262024C8.68159 0.261826 6.60541 0.891431 4.83943 2.07122C3.07344 3.251 1.69697 4.92798 0.88408 6.89008C0.0711926 8.85217 -0.141598 11.0113 0.272617 13.0943C0.686832 15.1773 1.70945 17.0907 3.21115 18.5926C4.71284 20.0944 6.62617 21.1172 8.70916 21.5316C10.7922 21.946 12.9513 21.7334 14.9134 20.9207C16.8756 20.108 18.5527 18.7317 19.7327 16.9658C20.9126 15.2 21.5424 13.1238 21.5424 11C21.5427 9.5899 21.2651 8.19354 20.7257 6.89069C20.1862 5.58784 19.3953 4.40403 18.3983 3.40688C17.4012 2.40972 16.2175 1.61876 14.9147 1.07916C13.6119 0.539557 12.2155 0.261893 10.8054 0.262024Z" fill="#204F38"/>
</svg>
