<svg width="36" height="33" viewBox="0 0 36 33" fill="none" xmlns="http://www.w3.org/2000/svg">
<g filter="url(#filter0_d_1_1173)">
<path d="M5.62611 4.66767H10.0621C10.2118 5.46681 10.6652 6.19177 11.3423 6.7144C12.0194 7.23704 12.8765 7.52369 13.7621 7.52369C14.6477 7.52369 15.5048 7.23704 16.1819 6.7144C16.859 6.19177 17.3124 5.46681 17.4621 4.66767H30.6621C30.7464 4.67076 30.8304 4.65823 30.9092 4.63084C30.9881 4.60345 31.06 4.56177 31.1208 4.50829C31.1816 4.45481 31.23 4.39063 31.2631 4.31962C31.2961 4.2486 31.3131 4.1722 31.3131 4.09501C31.3131 4.01782 31.2961 3.94143 31.2631 3.87041C31.23 3.7994 31.1816 3.73522 31.1208 3.68174C31.06 3.62826 30.9881 3.58658 30.9092 3.55919C30.8304 3.5318 30.7464 3.51927 30.6621 3.52236H17.4621C17.3124 2.72322 16.859 1.99826 16.1819 1.47562C15.5048 0.952989 14.6477 0.666336 13.7621 0.666336C12.8765 0.666336 12.0194 0.952989 11.3423 1.47562C10.6652 1.99826 10.2118 2.72322 10.0621 3.52236H5.62611C5.46455 3.52827 5.31175 3.59119 5.19972 3.69794C5.08769 3.80469 5.02513 3.94698 5.02513 4.09501C5.02513 4.24305 5.08769 4.38534 5.19972 4.49209C5.31175 4.59884 5.46455 4.66176 5.62611 4.66767ZM13.7601 1.80392C14.2546 1.80392 14.7379 1.93816 15.149 2.18966C15.5602 2.44115 15.8806 2.79862 16.0698 3.21684C16.259 3.63506 16.3085 4.09526 16.2121 4.53925C16.1156 4.98323 15.8775 5.39106 15.5279 5.71115C15.1782 6.03125 14.7328 6.24923 14.2478 6.33755C13.7629 6.42586 13.2602 6.38054 12.8034 6.2073C12.3466 6.03407 11.9561 5.74071 11.6814 5.36432C11.4067 4.98792 11.2601 4.54541 11.2601 4.09273C11.2601 3.4857 11.5235 2.90353 11.9923 2.4743C12.4612 2.04506 13.0971 1.80392 13.7601 1.80392ZM30.6601 12.1154H26.2191C26.0694 11.3163 25.616 10.5913 24.9389 10.0687C24.2618 9.54606 23.4047 9.25941 22.5191 9.25941C21.6335 9.25941 20.7764 9.54606 20.0993 10.0687C19.4222 10.5913 18.9688 11.3163 18.8191 12.1154H5.62611C5.54187 12.1123 5.45781 12.1249 5.37898 12.1523C5.30015 12.1797 5.22818 12.2213 5.16738 12.2748C5.10658 12.3283 5.05821 12.3925 5.02517 12.4635C4.99213 12.5345 4.9751 12.6109 4.9751 12.6881C4.9751 12.7653 4.99213 12.8417 5.02517 12.9127C5.05821 12.9837 5.10658 13.0479 5.16738 13.1014C5.22818 13.1548 5.30015 13.1965 5.37898 13.2239C5.45781 13.2513 5.54187 13.2638 5.62611 13.2607H18.8261C18.9758 14.0599 19.4292 14.7848 20.1063 15.3075C20.7834 15.8301 21.6405 16.1168 22.5261 16.1168C23.4117 16.1168 24.2688 15.8301 24.9459 15.3075C25.623 14.7848 26.0764 14.0599 26.2261 13.2607H30.6631C30.7474 13.2638 30.8314 13.2513 30.9102 13.2239C30.9891 13.1965 31.061 13.1548 31.1218 13.1014C31.1826 13.0479 31.231 12.9837 31.2641 12.9127C31.2971 12.8417 31.3141 12.7653 31.3141 12.6881C31.3141 12.6109 31.2971 12.5345 31.2641 12.4635C31.231 12.3925 31.1826 12.3283 31.1218 12.2748C31.061 12.2213 30.9891 12.1797 30.9102 12.1523C30.8314 12.1249 30.7474 12.1123 30.6631 12.1154H30.6601ZM22.5251 14.9801C22.0307 14.9801 21.5473 14.8459 21.1362 14.5944C20.7251 14.3429 20.4046 13.9854 20.2154 13.5672C20.0262 13.149 19.9767 12.6888 20.0731 12.2448C20.1696 11.8008 20.4077 11.393 20.7573 11.0729C21.107 10.7528 21.5524 10.5348 22.0374 10.4465C22.5223 10.3582 23.025 10.4035 23.4818 10.5767C23.9386 10.75 24.3291 11.0433 24.6038 11.4197C24.8785 11.7961 25.0251 12.2386 25.0251 12.6913C25.0251 12.9922 24.9603 13.2901 24.8344 13.568C24.7085 13.846 24.524 14.0984 24.2915 14.311C24.0589 14.5236 23.7828 14.6921 23.479 14.8069C23.1753 14.9217 22.8498 14.9806 22.5211 14.9801H22.5251ZM30.6601 20.7085H17.4601C17.3104 19.9094 16.857 19.1844 16.1799 18.6618C15.5028 18.1391 14.6457 17.8525 13.7601 17.8525C12.8745 17.8525 12.0174 18.1391 11.3403 18.6618C10.6632 19.1844 10.2098 19.9094 10.0601 20.7085H5.62611C5.46455 20.7144 5.31175 20.7773 5.19972 20.8841C5.08769 20.9908 5.02513 21.1331 5.02513 21.2812C5.02513 21.4292 5.08769 21.5715 5.19972 21.6782C5.31175 21.785 5.46455 21.8479 5.62611 21.8538H10.0621C10.2118 22.653 10.6652 23.3779 11.3423 23.9006C12.0194 24.4232 12.8765 24.7098 13.7621 24.7098C14.6477 24.7098 15.5048 24.4232 16.1819 23.9006C16.859 23.3779 17.3124 22.653 17.4621 21.8538H30.6621C30.7464 21.8569 30.8304 21.8444 30.9092 21.817C30.9881 21.7896 31.06 21.7479 31.1208 21.6944C31.1816 21.641 31.23 21.5768 31.2631 21.5058C31.2961 21.4348 31.3131 21.3584 31.3131 21.2812C31.3131 21.204 31.2961 21.1276 31.2631 21.0566C31.23 20.9855 31.1816 20.9214 31.1208 20.8679C31.06 20.8144 30.9881 20.7727 30.9092 20.7453C30.8304 20.718 30.7464 20.7054 30.6621 20.7085H30.6601ZM13.7601 23.5732C13.2657 23.5732 12.7823 23.4389 12.3712 23.1874C11.9601 22.9359 11.6396 22.5785 11.4504 22.1603C11.2612 21.742 11.2117 21.2818 11.3081 20.8378C11.4046 20.3939 11.6427 19.986 11.9923 19.6659C12.342 19.3458 12.7874 19.1279 13.2724 19.0395C13.7573 18.9512 14.26 18.9966 14.7168 19.1698C15.1736 19.343 15.5641 19.6364 15.8388 20.0128C16.1135 20.3892 16.2601 20.8317 16.2601 21.2844C16.2601 21.8914 15.9967 22.4736 15.5279 22.9028C15.059 23.332 14.4232 23.5732 13.7601 23.5732Z" fill="#204F38"/>
</g>
<defs>
<filter id="filter0_d_1_1173" x="0.975098" y="0.666336" width="34.3389" height="32.0435" filterUnits="userSpaceOnUse" color-interpolation-filters="sRGB">
<feFlood flood-opacity="0" result="BackgroundImageFix"/>
<feColorMatrix in="SourceAlpha" type="matrix" values="0 0 0 0 0 0 0 0 0 0 0 0 0 0 0 0 0 0 127 0" result="hardAlpha"/>
<feOffset dy="4"/>
<feGaussianBlur stdDeviation="2"/>
<feComposite in2="hardAlpha" operator="out"/>
<feColorMatrix type="matrix" values="0 0 0 0 0 0 0 0 0 0 0 0 0 0 0 0 0 0 0.25 0"/>
<feBlend mode="normal" in2="BackgroundImageFix" result="effect1_dropShadow_1_1173"/>
<feBlend mode="normal" in="SourceGraphic" in2="effect1_dropShadow_1_1173" result="shape"/>
</filter>
</defs>
</svg>
