<svg width="21" height="24" viewBox="0 0 21 24" fill="none" xmlns="http://www.w3.org/2000/svg">
<path d="M19.9587 22.861V20.503C19.9587 19.2523 19.4618 18.0527 18.5774 17.1683C17.693 16.2839 16.4935 15.787 15.2427 15.787H5.8117C4.56094 15.787 3.36141 16.2839 2.47699 17.1683C1.59257 18.0527 1.0957 19.2523 1.0957 20.503V22.861" stroke="black" stroke-width="2" stroke-linecap="round" stroke-linejoin="round"/>
<path d="M15.2425 6.35601C15.2425 7.28879 14.9659 8.20062 14.4477 8.97619C13.9294 9.75175 13.1928 10.3562 12.3311 10.7131C11.4693 11.07 10.521 11.1634 9.60614 10.9813C8.69129 10.7993 7.85098 10.35 7.19148 9.69038C6.53197 9.03073 6.0829 8.19033 5.90104 7.27545C5.71919 6.36057 5.81272 5.41231 6.16982 4.55059C6.52692 3.68887 7.13153 2.9524 7.90721 2.43432C8.68288 1.91624 9.59477 1.63982 10.5275 1.64001C11.7783 1.64001 12.9778 2.13688 13.8623 3.0213C14.7467 3.90572 15.2425 5.10525 15.2425 6.35601Z" stroke="black" stroke-width="2" stroke-linecap="round" stroke-linejoin="round"/>
</svg>
