<svg width="24" height="23" viewBox="0 0 24 23" fill="none" xmlns="http://www.w3.org/2000/svg">
<path d="M5.47493 20.411C5.381 20.4102 5.29022 20.377 5.21793 20.317C3.03567 18.5468 1.58154 16.0351 1.133 13.2611C0.684452 10.4872 1.27289 7.64522 2.78603 5.27745C4.29918 2.90969 6.6311 1.1819 9.33686 0.423753C12.0426 -0.334393 14.9328 -0.06982 17.4559 1.16699C17.5507 1.21671 17.6222 1.3015 17.6553 1.40325C17.6884 1.505 17.6804 1.61565 17.633 1.71159C17.5856 1.80752 17.5026 1.88113 17.4017 1.9167C17.3008 1.95228 17.19 1.947 17.0929 1.90199C14.7504 0.751156 12.066 0.503851 9.55259 1.20734C7.03924 1.91083 4.87323 3.51577 3.46851 5.71546C2.06379 7.91515 1.51888 10.5553 1.93789 13.1314C2.35691 15.7075 3.71048 18.0389 5.73993 19.68C5.80489 19.7346 5.85151 19.8078 5.8735 19.8897C5.89549 19.9716 5.89178 20.0583 5.86286 20.1381C5.83395 20.2178 5.78124 20.2868 5.71185 20.3356C5.64247 20.3844 5.55976 20.4107 5.47493 20.411ZM12.4149 22.86C10.5912 22.8647 8.79323 22.429 7.17393 21.59C7.07752 21.5401 7.00487 21.454 6.97196 21.3506C6.93905 21.2472 6.94857 21.1349 6.99843 21.0385C7.04829 20.9421 7.13441 20.8694 7.23783 20.8365C7.34126 20.8036 7.45353 20.8131 7.54993 20.863C9.8847 22.0668 12.5829 22.3621 15.1228 21.6917C17.6627 21.0213 19.8637 19.4329 21.3002 17.2337C22.7368 15.0344 23.3068 12.3806 22.9 9.78545C22.4932 7.1903 21.1385 4.83818 19.0979 3.18399C19.054 3.15104 19.0172 3.10957 18.9897 3.06207C18.9622 3.01456 18.9446 2.962 18.9379 2.90752C18.9312 2.85304 18.9355 2.79776 18.9507 2.74501C18.9659 2.69225 18.9915 2.64309 19.0261 2.60048C19.0607 2.55787 19.1035 2.52268 19.1521 2.49701C19.2006 2.47135 19.2538 2.45574 19.3085 2.45112C19.3632 2.4465 19.4183 2.45296 19.4704 2.47012C19.5225 2.48728 19.5707 2.51479 19.6119 2.55099C21.4465 4.03891 22.775 6.05862 23.4149 8.33238C24.0548 10.6061 23.9746 13.0223 23.1853 15.2486C22.396 17.4749 20.9364 19.4021 19.0072 20.765C17.0781 22.128 14.774 22.8599 12.4119 22.86H12.4149Z" fill="#204F38"/>
<path d="M12.0084 22.452C11.9071 22.4519 11.8094 22.4141 11.7344 22.346C10.2013 20.9709 9.03313 19.2372 8.3344 17.3C7.55872 15.4383 7.14272 13.4465 7.1084 11.43C7.11303 9.40905 7.52986 7.41031 8.3334 5.55598C9.09967 3.65528 10.2582 1.93756 11.7334 0.514986C11.8146 0.454648 11.9153 0.426619 12.016 0.436336C12.1167 0.446053 12.2101 0.492825 12.2783 0.567574C12.3464 0.642324 12.3844 0.739722 12.3848 0.840872C12.3852 0.942022 12.348 1.03971 12.2804 1.11499C10.8861 2.45694 9.79002 4.07742 9.0634 5.87099C8.31133 7.62672 7.92383 9.51696 7.9244 11.427C7.9505 13.3359 8.33835 15.2226 9.0674 16.987C9.72749 18.8131 10.8317 20.4461 12.2804 21.739C12.3413 21.7943 12.3841 21.8668 12.4031 21.947C12.4221 22.0271 12.4163 22.1111 12.3867 22.1879C12.3571 22.2647 12.3049 22.3307 12.237 22.3773C12.1691 22.4239 12.0887 22.4489 12.0064 22.449L12.0084 22.452Z" fill="#204F38"/>
<path d="M12.8234 22.452C12.7411 22.4519 12.6607 22.4269 12.5928 22.3803C12.5249 22.3337 12.4727 22.2677 12.4431 22.1909C12.4134 22.1141 12.4077 22.0301 12.4267 21.95C12.4457 21.8698 12.4884 21.7973 12.5494 21.742C13.9981 20.4491 15.1023 18.8161 15.7624 16.99C16.4912 15.2262 16.879 13.3402 16.9054 11.432C16.906 9.52196 16.5185 7.63172 15.7664 5.87599C15.0397 4.08244 13.9436 2.46196 12.5494 1.11998C12.5036 1.08597 12.4655 1.04275 12.4375 0.993097C12.4094 0.943445 12.3921 0.88847 12.3867 0.831717C12.3812 0.774963 12.3877 0.717691 12.4057 0.663595C12.4237 0.6095 12.4528 0.559781 12.4913 0.517646C12.5297 0.475511 12.5765 0.441894 12.6287 0.418966C12.6809 0.396037 12.7373 0.384304 12.7943 0.384525C12.8514 0.384745 12.9077 0.396914 12.9597 0.420245C13.0117 0.443577 13.0583 0.477554 13.0964 0.519985C14.5791 1.94053 15.7449 3.6584 16.5174 5.56098C17.3137 7.41582 17.7237 9.41345 17.7224 11.432C17.6884 13.4485 17.2727 15.4402 16.4974 17.302C15.7938 19.241 14.6197 20.9749 13.0804 22.348C13.0095 22.4116 12.9186 22.4484 12.8234 22.452Z" fill="#204F38"/>
<path d="M23.4364 11.838H1.39237C1.28417 11.838 1.18039 11.795 1.10388 11.7185C1.02736 11.642 0.984375 11.5382 0.984375 11.43C0.984375 11.3218 1.02736 11.218 1.10388 11.1415C1.18039 11.065 1.28417 11.022 1.39237 11.022H23.4364C23.5446 11.022 23.6484 11.065 23.7249 11.1415C23.8014 11.218 23.8444 11.3218 23.8444 11.43C23.8444 11.5382 23.8014 11.642 23.7249 11.7185C23.6484 11.795 23.5446 11.838 23.4364 11.838ZM21.8034 6.12301H3.02538C2.91717 6.12301 2.81339 6.08002 2.73688 6.00351C2.66036 5.92699 2.61738 5.82322 2.61738 5.71501C2.61738 5.6068 2.66036 5.50302 2.73688 5.42651C2.81339 5.34999 2.91717 5.30701 3.02538 5.30701H21.8034C21.9116 5.30701 22.0154 5.34999 22.0919 5.42651C22.1684 5.50302 22.2114 5.6068 22.2114 5.71501C22.2114 5.82322 22.1684 5.92699 22.0919 6.00351C22.0154 6.08002 21.9116 6.12301 21.8034 6.12301ZM21.8034 17.553H3.02538C2.91717 17.553 2.81339 17.51 2.73688 17.4335C2.66036 17.357 2.61738 17.2532 2.61738 17.145C2.61738 17.0368 2.66036 16.933 2.73688 16.8565C2.81339 16.78 2.91717 16.737 3.02538 16.737H21.8034C21.9116 16.737 22.0154 16.78 22.0919 16.8565C22.1684 16.933 22.2114 17.0368 22.2114 17.145C22.2114 17.2532 22.1684 17.357 22.0919 17.4335C22.0154 17.51 21.9116 17.553 21.8034 17.553Z" fill="#204F38"/>
<path d="M12.4148 22.452C12.3612 22.452 12.308 22.4414 12.2585 22.4209C12.2089 22.4003 12.1639 22.3702 12.126 22.3322C12.0881 22.2942 12.0581 22.2491 12.0376 22.1995C12.0172 22.1498 12.0067 22.0967 12.0068 22.043V0.81602C12.0068 0.707812 12.0498 0.604035 12.1263 0.52752C12.2029 0.451005 12.3066 0.40802 12.4148 0.40802C12.523 0.40802 12.6268 0.451005 12.7033 0.52752C12.7799 0.604035 12.8228 0.707812 12.8228 0.81602V22.043C12.823 22.0967 12.8125 22.1498 12.7921 22.1995C12.7716 22.2491 12.7416 22.2942 12.7037 22.3322C12.6658 22.3702 12.6208 22.4003 12.5712 22.4209C12.5216 22.4414 12.4685 22.452 12.4148 22.452Z" fill="#204F38"/>
</svg>
