<svg width="18" height="18" viewBox="0 0 18 18" fill="none" xmlns="http://www.w3.org/2000/svg">
<path d="M13.0497 0.000265138C12.2795 0.00668105 11.5195 0.192983 10.8209 0.546614C10.1223 0.900246 9.5014 1.41299 9 2.05029C8.49853 1.41291 7.87753 0.90012 7.17885 0.546486C6.48017 0.192851 5.72005 0.0065922 4.94974 0.000265138C4.29797 -0.00672956 3.65148 0.128036 3.04808 0.396677C2.44468 0.665318 1.8965 1.06244 1.43561 1.5648C0.974722 2.06716 0.610387 2.66467 0.363924 3.32236C0.117461 3.98006 -0.00617966 4.68473 0.000237587 5.39514C0.000237587 9.10326 3.0598 12.1247 7.69488 16.7151L9 18L10.3051 16.7052C14.9396 12.1241 17.9998 9.10326 17.9998 5.39514C18.0062 4.68468 17.8825 3.97995 17.636 3.32222C17.3895 2.66448 17.0251 2.06694 16.5642 1.56457C16.1032 1.0622 15.555 0.665098 14.9515 0.396495C14.3481 0.127892 13.7015 -0.00681296 13.0497 0.000265138ZM9.08975 15.254L9 15.3518L8.91025 15.254C4.62617 11.0262 1.80042 8.23028 1.80042 5.39514C1.79023 4.94123 1.86474 4.4898 2.01943 4.06823C2.17412 3.64666 2.40576 3.26373 2.70031 2.94268C2.99486 2.62163 3.34618 2.36914 3.73295 2.20053C4.11971 2.03192 4.53388 1.9507 4.95031 1.96181C5.63431 1.96545 6.3025 2.18636 6.87311 2.59749C7.44372 3.00862 7.89199 3.59215 8.16308 4.27666H9.84607C10.114 3.59223 10.5599 3.0083 11.1288 2.59693C11.6978 2.18557 12.3647 1.96478 13.0474 1.96181C13.4638 1.9507 13.878 2.03192 14.2648 2.20053C14.6515 2.36914 15.0029 2.62163 15.2974 2.94268C15.592 3.26373 15.8236 3.64666 15.9783 4.06823C16.133 4.4898 16.2075 4.94123 16.1973 5.39514C16.1996 8.23028 13.3733 11.0262 9.08975 15.254Z" fill="#204F38"/>
</svg>
