<svg width="24" height="21" viewBox="0 0 24 21" fill="none" xmlns="http://www.w3.org/2000/svg">
<path d="M7.25441 12.375H6.53541C6.15751 12.3753 5.78337 12.45 5.43435 12.5949C5.08533 12.7397 4.76827 12.952 4.50129 13.2194C4.23431 13.4869 4.02263 13.8043 3.87835 14.1536C3.73407 14.5028 3.66001 14.8771 3.66041 15.255V18.119C3.65988 18.8821 3.96245 19.6142 4.50159 20.1543C5.04072 20.6944 5.77229 20.9982 6.53541 20.999H7.25441C7.44338 20.9989 7.63047 20.9615 7.80501 20.8891C7.97955 20.8166 8.13811 20.7105 8.27164 20.5768C8.40517 20.4431 8.51106 20.2844 8.58325 20.1098C8.65545 19.9351 8.69254 19.748 8.69241 19.559V13.815C8.69254 13.626 8.65545 13.4389 8.58325 13.2642C8.51106 13.0896 8.40517 12.9309 8.27164 12.7972C8.13811 12.6635 7.97955 12.5574 7.80501 12.4849C7.63047 12.4125 7.44338 12.3751 7.25441 12.375ZM16.5984 12.375H15.8794C15.4979 12.3755 15.1323 12.5275 14.8628 12.7975C14.5934 13.0676 14.4421 13.4335 14.4424 13.815V19.56C14.4423 19.749 14.4794 19.9361 14.5516 20.1108C14.6238 20.2854 14.7296 20.4441 14.8632 20.5778C14.9967 20.7115 15.1553 20.8176 15.3298 20.8901C15.5043 20.9625 15.6914 20.9999 15.8804 21H16.5994C17.3625 20.9992 18.0941 20.6954 18.6332 20.1553C19.1724 19.6152 19.4749 18.8831 19.4744 18.12V15.255C19.4749 14.4919 19.1724 13.7598 18.6332 13.2197C18.0941 12.6796 17.3625 12.3758 16.5994 12.375H16.5984ZM11.5664 0.875C8.53398 0.931158 5.64143 2.16079 3.49681 4.30541C1.3522 6.45002 0.122565 9.34258 0.0664063 12.375L0.0664062 17.406C0.0664062 17.5004 0.0850037 17.5939 0.121137 17.6811C0.15727 17.7684 0.210231 17.8476 0.276996 17.9144C0.343762 17.9812 0.423024 18.0341 0.510257 18.0703C0.59749 18.1064 0.690986 18.125 0.785406 18.125H1.50441C1.59883 18.125 1.69232 18.1064 1.77956 18.0703C1.86679 18.0341 1.94605 17.9812 2.01282 17.9144C2.07958 17.8476 2.13254 17.7684 2.16868 17.6811C2.20481 17.5939 2.22341 17.5004 2.22341 17.406V12.375C2.22341 9.89682 3.20786 7.52013 4.9602 5.76779C6.71254 4.01545 9.08922 3.031 11.5674 3.031C14.0456 3.031 16.4223 4.01545 18.1746 5.76779C19.927 7.52013 20.9114 9.89682 20.9114 12.375V17.406C20.9114 17.5004 20.93 17.5939 20.9661 17.6811C21.0023 17.7684 21.0552 17.8476 21.122 17.9144C21.1888 17.9812 21.268 18.0341 21.3553 18.0703C21.4425 18.1064 21.536 18.125 21.6304 18.125H22.3494C22.5398 18.1245 22.7221 18.0485 22.8565 17.9137C22.9909 17.7789 23.0664 17.5963 23.0664 17.406V12.375C23.0102 9.34258 21.7806 6.45002 19.636 4.30541C17.4914 2.16079 14.5988 0.931158 11.5664 0.875Z" fill="#204F38"/>
</svg>
