<svg width="25" height="19" viewBox="0 0 25 19" fill="none" xmlns="http://www.w3.org/2000/svg">
<path d="M11.962 19C11.7946 18.9997 11.631 18.9499 11.4918 18.8569C11.3526 18.7638 11.2441 18.6316 11.18 18.477C11.1158 18.3224 11.0989 18.1522 11.1313 17.9879C11.1636 17.8237 11.2439 17.6727 11.362 17.554L11.512 17.404C11.5317 17.3843 11.5551 17.3687 11.5808 17.358C11.6065 17.3473 11.6341 17.3419 11.662 17.3419C11.6898 17.3419 11.7174 17.3473 11.7432 17.358C11.7689 17.3687 11.7923 17.3843 11.812 17.404C11.8317 17.4237 11.8473 17.4471 11.858 17.4728C11.8686 17.4985 11.8741 17.5261 11.8741 17.554C11.8741 17.5818 11.8686 17.6094 11.858 17.6352C11.8473 17.6609 11.8317 17.6843 11.812 17.704L11.662 17.854C11.6226 17.8934 11.5913 17.9401 11.5699 17.9916C11.5486 18.0431 11.5376 18.0983 11.5376 18.154C11.5376 18.2097 11.5486 18.2649 11.5699 18.3164C11.5913 18.3678 11.6226 18.4146 11.662 18.454C11.7428 18.5313 11.8502 18.5744 11.962 18.5744C12.0738 18.5744 12.1812 18.5313 12.262 18.454L12.412 18.304C12.4317 18.2843 12.4551 18.2687 12.4808 18.258C12.5065 18.2473 12.5341 18.2419 12.562 18.2419C12.5898 18.2419 12.6174 18.2473 12.6432 18.258C12.6689 18.2687 12.6923 18.2843 12.712 18.304C12.7317 18.3237 12.7473 18.3471 12.758 18.3728C12.7686 18.3985 12.7741 18.4261 12.7741 18.454C12.7741 18.4818 12.7686 18.5094 12.758 18.5352C12.7473 18.5609 12.7317 18.5843 12.712 18.604L12.562 18.754C12.4833 18.8327 12.3897 18.895 12.2867 18.9372C12.1837 18.9795 12.0733 19.0008 11.962 19Z" fill="#204F38"/>
<path d="M11.064 18.1C10.8964 18.1003 10.7324 18.0507 10.593 17.9578C10.4535 17.8648 10.3447 17.7325 10.2805 17.5776C10.2163 17.4228 10.1994 17.2524 10.2321 17.088C10.2647 16.9236 10.3454 16.7725 10.464 16.654L10.614 16.504C10.6337 16.4843 10.6571 16.4687 10.6828 16.458C10.7085 16.4474 10.7361 16.4419 10.764 16.4419C10.7918 16.4419 10.8194 16.4474 10.8452 16.458C10.8709 16.4687 10.8943 16.4843 10.914 16.504C10.9337 16.5237 10.9493 16.5471 10.96 16.5728C10.9706 16.5986 10.9761 16.6262 10.9761 16.654C10.9761 16.6819 10.9706 16.7095 10.96 16.7352C10.9493 16.7609 10.9337 16.7843 10.914 16.804L10.764 16.954C10.7244 16.9933 10.6931 17.0401 10.6716 17.0916C10.6502 17.1431 10.6392 17.1983 10.6392 17.254C10.6392 17.3098 10.6502 17.365 10.6716 17.4165C10.6931 17.468 10.7244 17.5147 10.764 17.554C10.8449 17.6311 10.9523 17.674 11.064 17.674C11.1757 17.674 11.2831 17.6311 11.364 17.554L11.514 17.404C11.5337 17.3843 11.5571 17.3687 11.5828 17.358C11.6085 17.3474 11.6361 17.3419 11.664 17.3419C11.6918 17.3419 11.7194 17.3474 11.7452 17.358C11.7709 17.3687 11.7943 17.3843 11.814 17.404C11.8337 17.4237 11.8493 17.4471 11.86 17.4729C11.8706 17.4986 11.8761 17.5262 11.8761 17.554C11.8761 17.5819 11.8706 17.6095 11.86 17.6352C11.8493 17.6609 11.8337 17.6843 11.814 17.704L11.664 17.854C11.5852 17.9328 11.4917 17.9953 11.3887 18.0379C11.2858 18.0804 11.1754 18.1022 11.064 18.102V18.1Z" fill="#204F38"/>
<path d="M10.1646 17.201C9.99694 17.2013 9.83301 17.1518 9.69354 17.0588C9.55407 16.9658 9.44533 16.8335 9.38108 16.6787C9.31684 16.5238 9.29998 16.3534 9.33264 16.189C9.3653 16.0246 9.44602 15.8736 9.56457 15.755L9.71457 15.605C9.75435 15.5653 9.80831 15.5429 9.86457 15.5429C9.92083 15.5429 9.97479 15.5653 10.0146 15.605C10.0544 15.6448 10.0767 15.6988 10.0767 15.755C10.0767 15.8113 10.0544 15.8653 10.0146 15.905L9.86457 16.055C9.785 16.1346 9.7403 16.2425 9.7403 16.355C9.7403 16.4676 9.785 16.5755 9.86457 16.655C9.94413 16.7346 10.052 16.7793 10.1646 16.7793C10.2771 16.7793 10.385 16.7346 10.4646 16.655L10.6146 16.505C10.6343 16.4853 10.6577 16.4697 10.6834 16.4591C10.7091 16.4484 10.7367 16.4429 10.7646 16.4429C10.7924 16.4429 10.82 16.4484 10.8457 16.4591C10.8715 16.4697 10.8949 16.4853 10.9146 16.505C10.9343 16.5247 10.9499 16.5481 10.9606 16.5739C10.9712 16.5996 10.9767 16.6272 10.9767 16.655C10.9767 16.6829 10.9712 16.7105 10.9606 16.7362C10.9499 16.762 10.9343 16.7853 10.9146 16.805L10.7646 16.955C10.6858 17.0337 10.5922 17.096 10.4892 17.1384C10.3863 17.1808 10.2759 17.2014 10.1646 17.201Z" fill="#204F38"/>
<path d="M9.26495 16.303C9.09754 16.3028 8.93394 16.253 8.79478 16.1599C8.65561 16.0668 8.54711 15.9346 8.48295 15.78C8.41879 15.6254 8.40183 15.4552 8.43422 15.291C8.46661 15.1267 8.54689 14.9757 8.66495 14.857L8.81495 14.707C8.83465 14.6873 8.85804 14.6717 8.88377 14.661C8.90951 14.6504 8.93709 14.6449 8.96495 14.6449C8.99281 14.6449 9.0204 14.6504 9.04613 14.661C9.07187 14.6717 9.09525 14.6873 9.11495 14.707C9.13465 14.7267 9.15028 14.7501 9.16094 14.7758C9.1716 14.8016 9.17708 14.8292 9.17708 14.857C9.17708 14.8849 9.1716 14.9124 9.16094 14.9382C9.15028 14.9639 9.13465 14.9873 9.11495 15.007L8.96495 15.157C8.92556 15.1964 8.89431 15.2432 8.87298 15.2946C8.85166 15.3461 8.84069 15.4013 8.84069 15.457C8.84069 15.5127 8.85166 15.5679 8.87298 15.6194C8.89431 15.6708 8.92556 15.7176 8.96495 15.757C9.00435 15.7964 9.05112 15.8277 9.10259 15.849C9.15407 15.8703 9.20924 15.8813 9.26495 15.8813C9.32067 15.8813 9.37584 15.8703 9.42731 15.849C9.47879 15.8277 9.52556 15.7964 9.56495 15.757L9.71495 15.607C9.75473 15.5672 9.80869 15.5449 9.86495 15.5449C9.92121 15.5449 9.97517 15.5672 10.015 15.607C10.0547 15.6468 10.0771 15.7007 10.0771 15.757C10.0771 15.8133 10.0547 15.8672 10.015 15.907L9.86495 16.057C9.78617 16.1358 9.69262 16.1982 9.58966 16.2408C9.4867 16.2833 9.37636 16.3052 9.26495 16.305V16.303ZM5.96995 12.073C5.91373 12.0729 5.85981 12.0507 5.81995 12.011L1.77795 7.96701C1.75825 7.94731 1.74263 7.92392 1.73197 7.89819C1.72131 7.87245 1.71582 7.84486 1.71582 7.81701C1.71582 7.76075 1.73817 7.70679 1.77795 7.66701C1.81774 7.62722 1.87169 7.60488 1.92795 7.60488C1.98421 7.60488 2.03817 7.62722 2.07795 7.66701L5.97195 11.561L9.56495 7.96701L5.67095 4.07301C5.63117 4.03323 5.60882 3.97927 5.60882 3.92301C5.60882 3.86675 5.63117 3.81279 5.67095 3.77301C5.71074 3.73323 5.76469 3.71088 5.82095 3.71088C5.87721 3.71088 5.93117 3.73323 5.97095 3.77301L10.015 7.81601C10.0347 7.8357 10.0503 7.85908 10.061 7.88482C10.0716 7.91056 10.0771 7.93814 10.0771 7.96601C10.0771 7.99387 10.0716 8.02146 10.061 8.0472C10.0503 8.07294 10.0347 8.09632 10.015 8.11601L6.12095 12.016C6.08041 12.054 6.02551 12.0745 5.96995 12.073Z" fill="#204F38"/>
<path d="M4.17355 10.277C4.11732 10.2769 4.0634 10.2547 4.02355 10.215L0.130546 6.32101C0.110832 6.30132 0.0951928 6.27793 0.0845222 6.2522C0.0738517 6.22646 0.0683594 6.19887 0.0683594 6.17101C0.0683594 6.14314 0.0738517 6.11555 0.0845222 6.08982C0.0951928 6.06408 0.110832 6.0407 0.130546 6.02101L4.02455 2.12701C4.04424 2.10729 4.06762 2.09165 4.09336 2.08098C4.11909 2.07031 4.14668 2.06482 4.17455 2.06482C4.20241 2.06482 4.23 2.07031 4.25574 2.08098C4.28147 2.09165 4.30486 2.10729 4.32455 2.12701L8.21855 6.02101C8.23826 6.0407 8.2539 6.06408 8.26457 6.08982C8.27524 6.11555 8.28073 6.14314 8.28073 6.17101C8.28073 6.19887 8.27524 6.22646 8.26457 6.2522C8.2539 6.27793 8.23826 6.30132 8.21855 6.32101L4.32355 10.215C4.30387 10.2347 4.28049 10.2504 4.25475 10.261C4.229 10.2716 4.2014 10.2771 4.17355 10.277ZM0.579546 6.17101L4.17355 9.76501L7.76855 6.17101L4.17355 2.57701L0.579546 6.17101ZM7.16355 12.671C7.10732 12.6709 7.0534 12.6487 7.01355 12.609L6.11355 11.709C6.09383 11.6893 6.07819 11.6659 6.06752 11.6402C6.05685 11.6145 6.05136 11.5869 6.05136 11.559C6.05136 11.5311 6.05685 11.5036 6.06752 11.4778C6.07819 11.4521 6.09383 11.4287 6.11355 11.409L9.40555 8.11201C9.42524 8.09229 9.44862 8.07665 9.47436 8.06598C9.50009 8.05531 9.52768 8.04982 9.55555 8.04982C9.58341 8.04982 9.611 8.05531 9.63674 8.06598C9.66247 8.07665 9.68586 8.09229 9.70555 8.11201L10.6055 9.01201C10.6253 9.0317 10.6409 9.05508 10.6516 9.08082C10.6622 9.10656 10.6677 9.13414 10.6677 9.16201C10.6677 9.18987 10.6622 9.21746 10.6516 9.2432C10.6409 9.26893 10.6253 9.29232 10.6055 9.31201L7.31055 12.607C7.27047 12.6462 7.21661 12.6681 7.16055 12.668L7.16355 12.671ZM6.56355 11.561L7.16355 12.161L10.1635 9.16101L9.56355 8.56101L6.56855 11.561H6.56355Z" fill="#204F38"/>
<path d="M11.9616 18.065C11.9053 18.0649 11.8514 18.0427 11.8116 18.003L7.01957 13.21C6.96043 13.1509 6.91351 13.0808 6.8815 13.0036C6.84948 12.9264 6.83301 12.8436 6.83301 12.76C6.83301 12.6764 6.84948 12.5937 6.8815 12.5164C6.91351 12.4392 6.96043 12.3691 7.01957 12.31L10.3146 9.01501C10.3343 8.99529 10.3576 8.97965 10.3834 8.96898C10.4091 8.95831 10.4367 8.95282 10.4646 8.95282C10.4924 8.95282 10.52 8.95831 10.5458 8.96898C10.5715 8.97965 10.5949 8.99529 10.6146 9.01501L11.1516 9.55201H12.2626C12.3188 9.55207 12.3727 9.57435 12.4126 9.61401L12.7126 9.91401C12.7323 9.9337 12.7479 9.95709 12.7586 9.98283C12.7692 10.0086 12.7747 10.0361 12.7747 10.064C12.7747 10.0919 12.7692 10.1194 12.7586 10.1452C12.7479 10.1709 12.7323 10.1943 12.7126 10.214C12.6929 10.2337 12.6695 10.2493 12.6437 10.26C12.618 10.2707 12.5904 10.2761 12.5626 10.2761C12.5347 10.2761 12.5071 10.2707 12.4814 10.26C12.4557 10.2493 12.4323 10.2337 12.4126 10.214L12.1746 9.97601H11.0636C11.0357 9.97603 11.0081 9.97057 10.9824 9.95993C10.9567 9.94929 10.9333 9.93369 10.9136 9.91401L10.4646 9.46501L7.31957 12.61C7.28 12.6499 7.25779 12.7038 7.25779 12.76C7.25779 12.8162 7.28 12.8701 7.31957 12.91L12.1126 17.702C12.1423 17.7317 12.1625 17.7694 12.1707 17.8106C12.1789 17.8517 12.1747 17.8944 12.1586 17.9332C12.1425 17.9719 12.1153 18.005 12.0804 18.0283C12.0455 18.0516 12.0045 18.064 11.9626 18.064L11.9616 18.065Z" fill="#204F38"/>
<path d="M13.1595 19.003C13.048 19.0033 12.9376 18.9816 12.8347 18.939C12.7317 18.8964 12.6382 18.8339 12.5595 18.755L11.5065 17.697C11.4667 17.6572 11.4443 17.6033 11.4443 17.547C11.4443 17.4907 11.4667 17.4368 11.5065 17.397C11.5463 17.3572 11.6002 17.3349 11.6565 17.3349C11.7127 17.3349 11.7667 17.3572 11.8065 17.397L12.8615 18.451C12.9009 18.4904 12.9476 18.5216 12.9991 18.543C13.0506 18.5643 13.1058 18.5753 13.1615 18.5753C13.2172 18.5753 13.2724 18.5643 13.3238 18.543C13.3753 18.5216 13.4221 18.4904 13.4615 18.451C13.5009 18.4116 13.5321 18.3648 13.5534 18.3133C13.5748 18.2619 13.5857 18.2067 13.5857 18.151C13.5857 18.0953 13.5748 18.0401 13.5534 17.9886C13.5321 17.9372 13.5009 17.8904 13.4615 17.851L12.4045 16.803C12.3848 16.7833 12.3691 16.7599 12.3585 16.7342C12.3478 16.7084 12.3423 16.6808 12.3423 16.653C12.3423 16.6251 12.3478 16.5975 12.3585 16.5718C12.3691 16.5461 12.3848 16.5227 12.4045 16.503C12.4242 16.4833 12.4476 16.4677 12.4733 16.457C12.499 16.4463 12.5266 16.4409 12.5545 16.4409C12.5823 16.4409 12.6099 16.4463 12.6356 16.457C12.6614 16.4677 12.6848 16.4833 12.7045 16.503L13.7595 17.558C13.8785 17.6763 13.9597 17.8274 13.9926 17.992C14.0255 18.1565 14.0088 18.3272 13.9445 18.4822C13.8801 18.6373 13.7711 18.7696 13.6314 18.8626C13.4916 18.9555 13.3273 19.0037 13.1595 19.003Z" fill="#204F38"/>
<path d="M14.0581 18.102C13.9467 18.1025 13.8362 18.0809 13.7332 18.0383C13.6302 17.9957 13.5367 17.9331 13.4581 17.854L12.1041 16.5C12.0643 16.4602 12.042 16.4063 12.042 16.35C12.042 16.2937 12.0643 16.2398 12.1041 16.2C12.1439 16.1602 12.1979 16.1379 12.2541 16.1379C12.3104 16.1379 12.3643 16.1602 12.4041 16.2L13.7581 17.554C13.8389 17.6313 13.9464 17.6744 14.0581 17.6744C14.1699 17.6744 14.2774 17.6313 14.3581 17.554C14.3975 17.5146 14.4288 17.4679 14.4502 17.4164C14.4715 17.3649 14.4825 17.3097 14.4825 17.254C14.4825 17.1983 14.4715 17.1431 14.4502 17.0916C14.4288 17.0401 14.3975 16.9934 14.3581 16.954L13.3031 15.899C13.2633 15.8592 13.241 15.8053 13.241 15.749C13.241 15.6927 13.2633 15.6388 13.3031 15.599C13.3429 15.5592 13.3969 15.5369 13.4531 15.5369C13.5094 15.5369 13.5633 15.5592 13.6031 15.599L14.6581 16.654C14.7767 16.7725 14.8574 16.9235 14.8901 17.088C14.9227 17.2524 14.9059 17.4228 14.8416 17.5776C14.7774 17.7324 14.6686 17.8647 14.5292 17.9577C14.3897 18.0507 14.2258 18.1002 14.0581 18.1V18.102Z" fill="#204F38"/>
<path d="M14.9575 17.202C14.8462 17.2024 14.7358 17.1808 14.6329 17.1385C14.5299 17.0961 14.4363 17.0337 14.3575 16.955L13.0035 15.601C12.9838 15.5813 12.9682 15.5579 12.9576 15.5322C12.9469 15.5064 12.9414 15.4788 12.9414 15.451C12.9414 15.4231 12.9469 15.3955 12.9576 15.3698C12.9682 15.3441 12.9838 15.3207 13.0035 15.301C13.0232 15.2813 13.0466 15.2657 13.0724 15.255C13.0981 15.2443 13.1257 15.2389 13.1535 15.2389C13.1814 15.2389 13.209 15.2443 13.2347 15.255C13.2605 15.2657 13.2838 15.2813 13.3035 15.301L14.6575 16.655C14.7371 16.7346 14.845 16.7793 14.9575 16.7793C15.0701 16.7793 15.178 16.7346 15.2575 16.655C15.3371 16.5754 15.3818 16.4675 15.3818 16.355C15.3818 16.2425 15.3371 16.1346 15.2575 16.055L14.2025 15.001C14.1828 14.9813 14.1672 14.9579 14.1566 14.9322C14.1459 14.9064 14.1404 14.8788 14.1404 14.851C14.1404 14.8231 14.1459 14.7955 14.1566 14.7698C14.1672 14.7441 14.1828 14.7207 14.2025 14.701C14.2222 14.6813 14.2456 14.6657 14.2714 14.655C14.2971 14.6443 14.3247 14.6389 14.3525 14.6389C14.3804 14.6389 14.408 14.6443 14.4337 14.655C14.4595 14.6657 14.4828 14.6813 14.5025 14.701L15.5575 15.755C15.6761 15.8735 15.7568 16.0245 15.7895 16.1889C15.8221 16.3534 15.8053 16.5238 15.741 16.6786C15.6768 16.8334 15.568 16.9657 15.4286 17.0587C15.2891 17.1517 15.1252 17.2022 14.9575 17.202Z" fill="#204F38"/>
<path d="M15.8558 16.304C15.7443 16.3045 15.6339 16.2829 15.5309 16.2403C15.4279 16.1977 15.3343 16.1351 15.2558 16.056L13.9018 14.702C13.862 14.6622 13.8397 14.6083 13.8397 14.552C13.8397 14.4957 13.862 14.4418 13.9018 14.402C13.9416 14.3622 13.9955 14.3399 14.0518 14.3399C14.1081 14.3399 14.162 14.3622 14.2018 14.402L15.5558 15.756C15.6364 15.8335 15.7439 15.8768 15.8558 15.8768C15.9676 15.8768 16.0751 15.8335 16.1558 15.756C16.1953 15.7167 16.2267 15.6699 16.2481 15.6185C16.2696 15.567 16.2806 15.5118 16.2806 15.456C16.2806 15.4002 16.2696 15.345 16.2481 15.2935C16.2267 15.2421 16.1953 15.1953 16.1558 15.156L12.7048 11.709C12.6851 11.6893 12.6695 11.6659 12.6588 11.6402C12.6481 11.6144 12.6427 11.5869 12.6427 11.559C12.6427 11.5311 12.6481 11.5036 12.6588 11.4778C12.6695 11.4521 12.6851 11.4287 12.7048 11.409C12.7245 11.3893 12.7479 11.3737 12.7736 11.363C12.7993 11.3524 12.8269 11.3469 12.8548 11.3469C12.8826 11.3469 12.9102 11.3524 12.936 11.363C12.9617 11.3737 12.9851 11.3893 13.0048 11.409L16.4558 14.86C16.5743 14.9785 16.6551 15.1295 16.6877 15.294C16.7204 15.4584 16.7035 15.6288 16.6393 15.7836C16.575 15.9384 16.4663 16.0707 16.3268 16.1637C16.1873 16.2567 16.0234 16.3062 15.8558 16.306V16.304ZM5.96179 10.691C5.82562 10.6907 5.69314 10.6467 5.58392 10.5653C5.47469 10.484 5.3945 10.3697 5.35518 10.2394C5.31585 10.109 5.31948 9.96944 5.36553 9.84129C5.41157 9.71314 5.49759 9.60318 5.61089 9.52765C5.72419 9.45211 5.85878 9.415 5.99478 9.42179C6.13078 9.42858 6.261 9.4789 6.36622 9.56535C6.47144 9.65179 6.54608 9.76976 6.57913 9.90186C6.61219 10.034 6.6019 10.1732 6.54979 10.299C6.5016 10.4151 6.41996 10.5143 6.31526 10.5839C6.21056 10.6536 6.08753 10.6915 5.96179 10.691ZM5.96179 9.844C5.91943 9.84159 5.87733 9.85196 5.84092 9.87375C5.80452 9.89553 5.77549 9.92774 5.75759 9.96621C5.73968 10.0047 5.73374 10.0476 5.74051 10.0895C5.74728 10.1314 5.76647 10.1703 5.79558 10.2011C5.8247 10.232 5.8624 10.2534 5.90382 10.2626C5.94524 10.2718 5.98846 10.2684 6.0279 10.2527C6.06734 10.2371 6.10119 10.21 6.12506 10.1749C6.14893 10.1399 6.16172 10.0984 6.16179 10.056C6.16188 10.0018 6.1412 9.94961 6.104 9.91018C6.0668 9.87075 6.01591 9.84706 5.96179 9.844ZM18.8518 12.373C18.7956 12.3729 18.7416 12.3507 18.7018 12.311L14.8078 8.417C14.7881 8.39731 14.7724 8.37392 14.7618 8.34819C14.7511 8.32245 14.7456 8.29486 14.7456 8.267C14.7456 8.23913 14.7511 8.21154 14.7618 8.18581C14.7724 8.16007 14.7881 8.13669 14.8078 8.117L18.8518 4.073C18.8715 4.0533 18.8949 4.03767 18.9206 4.02701C18.9463 4.01635 18.9739 4.01086 19.0018 4.01086C19.0296 4.01086 19.0572 4.01635 19.083 4.02701C19.1087 4.03767 19.1321 4.0533 19.1518 4.073C19.1715 4.09269 19.1871 4.11608 19.1978 4.14182C19.2084 4.16755 19.2139 4.19514 19.2139 4.223C19.2139 4.25086 19.2084 4.27844 19.1978 4.30418C19.1871 4.32991 19.1715 4.3533 19.1518 4.373L15.2578 8.267L18.8518 11.861L22.7458 7.967C22.7655 7.9473 22.7889 7.93167 22.8146 7.92101C22.8403 7.91035 22.8679 7.90487 22.8958 7.90487C22.9236 7.90487 22.9512 7.91035 22.977 7.92101C23.0027 7.93167 23.0261 7.9473 23.0458 7.967C23.0655 7.9867 23.0811 8.01008 23.0918 8.03582C23.1024 8.06155 23.1079 8.08914 23.1079 8.117C23.1079 8.14485 23.1024 8.17244 23.0918 8.19818C23.0811 8.22391 23.0655 8.2473 23.0458 8.267L19.0008 12.309C18.9814 12.3292 18.9581 12.3452 18.9323 12.3562C18.9065 12.3672 18.8798 12.3729 18.8518 12.373Z" fill="#204F38"/>
<path d="M20.6485 10.576C20.5923 10.576 20.5384 10.5537 20.4985 10.514L16.6045 6.62002C16.5848 6.60033 16.5692 6.57695 16.5585 6.55121C16.5478 6.52547 16.5423 6.49788 16.5423 6.47002C16.5423 6.44216 16.5478 6.41457 16.5585 6.38883C16.5692 6.36309 16.5848 6.33971 16.6045 6.32002L20.4985 2.42602C20.5182 2.4063 20.5416 2.39066 20.5673 2.37999C20.5931 2.36932 20.6207 2.36383 20.6485 2.36383C20.6764 2.36383 20.704 2.36932 20.7297 2.37999C20.7555 2.39066 20.7788 2.4063 20.7985 2.42602L24.6925 6.32002C24.7122 6.33971 24.7279 6.36309 24.7386 6.38883C24.7492 6.41457 24.7547 6.44216 24.7547 6.47002C24.7547 6.49788 24.7492 6.52547 24.7386 6.55121C24.7279 6.57695 24.7122 6.60033 24.6925 6.62002L20.7985 10.514C20.7789 10.5337 20.7555 10.5494 20.7297 10.56C20.704 10.5707 20.6764 10.5761 20.6485 10.576ZM17.0545 6.47002L20.6485 10.064L24.2425 6.47002L20.6485 2.87602L17.0545 6.47002ZM17.6595 12.97C17.6033 12.97 17.5494 12.9477 17.5095 12.908L14.2145 9.60902C14.1948 9.58933 14.1792 9.56595 14.1685 9.54021C14.1578 9.51447 14.1523 9.48688 14.1523 9.45902C14.1523 9.43115 14.1578 9.40357 14.1685 9.37783C14.1792 9.35209 14.1948 9.32871 14.2145 9.30902L15.1145 8.40902C15.1342 8.3893 15.1576 8.37366 15.1833 8.36299C15.2091 8.35232 15.2367 8.34683 15.2645 8.34683C15.2924 8.34683 15.32 8.35232 15.3457 8.36299C15.3715 8.37366 15.3948 8.3893 15.4145 8.40902L18.7095 11.704C18.7292 11.7237 18.7449 11.7471 18.7556 11.7728C18.7662 11.7986 18.7717 11.8262 18.7717 11.854C18.7717 11.8819 18.7662 11.9095 18.7556 11.9352C18.7449 11.9609 18.7292 11.9843 18.7095 12.004L17.8095 12.904C17.7898 12.9237 17.7664 12.9393 17.7407 12.9499C17.715 12.9606 17.6874 12.966 17.6595 12.966V12.97ZM14.6595 9.46302L17.6595 12.463L18.2595 11.863L15.2595 8.86302L14.6595 9.46302Z" fill="#204F38"/>
<path d="M16.1551 15.073C16.1133 15.0729 16.0726 15.0604 16.0379 15.0371C16.0032 15.0139 15.9761 14.9809 15.9601 14.9424C15.9441 14.9038 15.9398 14.8614 15.9478 14.8204C15.9558 14.7794 15.9757 14.7417 16.0051 14.712L17.5051 13.212C17.5249 13.1924 17.5407 13.169 17.5514 13.1433C17.5622 13.1175 17.5677 13.0899 17.5677 13.062C17.5677 13.0341 17.5622 13.0065 17.5514 12.9808C17.5407 12.955 17.5249 12.9316 17.5051 12.912L14.3601 9.76702L13.9111 10.216C13.8914 10.2357 13.868 10.2513 13.8423 10.2619C13.8165 10.2726 13.7889 10.278 13.7611 10.278H12.6491L10.6141 12.313C10.5944 12.3327 10.571 12.3483 10.5453 12.359C10.5195 12.3697 10.4919 12.3752 10.4641 12.3752C10.4362 12.3752 10.4086 12.3697 10.3829 12.359C10.3572 12.3483 10.3338 12.3327 10.3141 12.313C10.2944 12.2933 10.2788 12.2699 10.2681 12.2442C10.2574 12.2185 10.252 12.1909 10.252 12.163C10.252 12.1352 10.2574 12.1076 10.2681 12.0818C10.2788 12.0561 10.2944 12.0327 10.3141 12.013L12.4141 9.91302C12.4338 9.89334 12.4572 9.87774 12.4829 9.8671C12.5087 9.85646 12.5362 9.851 12.5641 9.85102H13.6751L14.2121 9.31402C14.2526 9.27562 14.3063 9.25421 14.3621 9.25421C14.4179 9.25421 14.4716 9.27562 14.5121 9.31402L17.8071 12.614C17.8662 12.6731 17.9131 12.7432 17.9452 12.8205C17.9772 12.8977 17.9936 12.9804 17.9936 13.064C17.9936 13.1476 17.9772 13.2304 17.9452 13.3076C17.9131 13.3848 17.8662 13.455 17.8071 13.514L16.3071 15.014C16.2671 15.0534 16.2132 15.0753 16.1571 15.075L16.1551 15.073ZM18.8601 10.994C18.7132 10.9938 18.5709 10.9426 18.4574 10.8492C18.344 10.7558 18.2665 10.626 18.2381 10.4818C18.2096 10.3377 18.2321 10.1881 18.3016 10.0587C18.3711 9.92923 18.4833 9.82788 18.6192 9.77191C18.755 9.71593 18.9061 9.7088 19.0466 9.75173C19.1871 9.79465 19.3084 9.88498 19.3898 10.0073C19.4711 10.1296 19.5076 10.2764 19.4929 10.4226C19.4782 10.5688 19.4132 10.7054 19.3091 10.809C19.1898 10.9277 19.0284 10.9943 18.8601 10.994ZM18.7101 10.509C18.7397 10.5386 18.7775 10.5588 18.8186 10.567C18.8598 10.5751 18.9024 10.5709 18.9411 10.5549C18.9798 10.5388 19.0129 10.5116 19.0362 10.4768C19.0595 10.4419 19.0719 10.4009 19.0719 10.359C19.0719 10.3171 19.0595 10.2761 19.0362 10.2413C19.0129 10.2064 18.9798 10.1792 18.9411 10.1632C18.9024 10.1471 18.8598 10.1429 18.8186 10.1511C18.7775 10.1592 18.7397 10.1794 18.7101 10.209C18.6718 10.2486 18.6504 10.3015 18.6504 10.3565C18.6504 10.4116 18.6718 10.4645 18.7101 10.504V10.509Z" fill="#204F38"/>
<path d="M11.3562 12.739C11.1615 12.7395 10.9686 12.7014 10.7887 12.6269C10.6088 12.5524 10.4455 12.443 10.3082 12.305C10.2885 12.2853 10.2728 12.2619 10.2622 12.2362C10.2515 12.2105 10.246 12.1829 10.246 12.155C10.246 12.1272 10.2515 12.0996 10.2622 12.0738C10.2728 12.0481 10.2885 12.0247 10.3082 12.005C10.3279 11.9853 10.3513 11.9697 10.377 11.959C10.4027 11.9484 10.4303 11.9429 10.4582 11.9429C10.486 11.9429 10.5136 11.9484 10.5394 11.959C10.5651 11.9697 10.5885 11.9853 10.6082 12.005C10.81 12.1984 11.0787 12.3064 11.3582 12.3064C11.6377 12.3064 11.9064 12.1984 12.1082 12.005L13.0082 11.105C13.0279 11.0853 13.0513 11.0697 13.077 11.059C13.1027 11.0484 13.1303 11.0429 13.1582 11.0429C13.186 11.0429 13.2136 11.0484 13.2394 11.059C13.2651 11.0697 13.2885 11.0853 13.3082 11.105C13.3279 11.1247 13.3435 11.1481 13.3542 11.1738C13.3648 11.1996 13.3703 11.2272 13.3703 11.255C13.3703 11.2829 13.3648 11.3105 13.3542 11.3362C13.3435 11.3619 13.3279 11.3853 13.3082 11.405L12.4082 12.305C12.2708 12.443 12.1075 12.5524 11.9276 12.6269C11.7477 12.7014 11.5549 12.7395 11.3602 12.739H11.3562ZM17.2822 5.99002C17.2259 5.99002 17.172 5.96768 17.1323 5.92792C17.0925 5.88816 17.0702 5.83424 17.0702 5.77802V3.17802L12.4102 0.488016L7.75017 3.17802V5.63802C7.75017 5.69424 7.72784 5.74817 7.68808 5.78792C7.64832 5.82768 7.5944 5.85002 7.53817 5.85002C7.48195 5.85002 7.42802 5.82768 7.38827 5.78792C7.34851 5.74817 7.32617 5.69424 7.32617 5.63802V3.06002C7.32618 3.02288 7.33598 2.98641 7.35459 2.95428C7.3732 2.92215 7.39996 2.89549 7.43217 2.87702L12.3042 0.0640163C12.3364 0.0455068 12.373 0.0357666 12.4102 0.0357666C12.4474 0.0357666 12.4839 0.0455068 12.5162 0.0640163L17.3882 2.87702C17.4204 2.89549 17.4471 2.92215 17.4658 2.95428C17.4844 2.98641 17.4942 3.02288 17.4942 3.06002V5.77802C17.4942 5.80586 17.4887 5.83342 17.478 5.85915C17.4674 5.88487 17.4518 5.90824 17.4321 5.92792C17.4124 5.94761 17.389 5.96322 17.3633 5.97388C17.3376 5.98453 17.31 5.99002 17.2822 5.99002Z" fill="#204F38"/>
<path d="M10.0911 4.77103C10.0539 4.7713 10.0174 4.76163 9.98514 4.74303L7.44614 3.27703C7.4212 3.26355 7.39923 3.24521 7.38151 3.22309C7.36379 3.20097 7.35068 3.17552 7.34297 3.14825C7.33525 3.12097 7.33308 3.09243 7.33659 3.0643C7.3401 3.03618 7.34921 3.00904 7.36339 2.9845C7.37756 2.95995 7.39652 2.9385 7.41913 2.92141C7.44174 2.90432 7.46755 2.89194 7.49503 2.885C7.52251 2.87805 7.55111 2.87669 7.57912 2.88099C7.60714 2.88529 7.63401 2.89517 7.65814 2.91003L10.1971 4.37603C10.2399 4.39823 10.2739 4.43435 10.2934 4.47843C10.3128 4.52251 10.3167 4.57191 10.3044 4.6185C10.2921 4.66509 10.2642 4.70608 10.2254 4.73472C10.1867 4.76335 10.1393 4.77792 10.0911 4.77603V4.77103ZM14.7291 4.71903C14.681 4.72093 14.6336 4.70635 14.5948 4.67772C14.5561 4.64908 14.5282 4.60809 14.5159 4.5615C14.5035 4.51491 14.5074 4.4655 14.5269 4.42143C14.5464 4.37735 14.5804 4.34123 14.6231 4.31903L17.1311 2.87103C17.1797 2.84478 17.2366 2.8385 17.2897 2.85353C17.3428 2.86855 17.3879 2.90369 17.4155 2.95148C17.4431 2.99927 17.451 3.05594 17.4375 3.10945C17.424 3.16296 17.3901 3.20909 17.3431 3.23803L14.8341 4.69203C14.8022 4.7102 14.7659 4.71952 14.7291 4.71903ZM12.4091 8.75703C12.3529 8.75703 12.299 8.73469 12.2592 8.69494C12.2195 8.65518 12.1971 8.60125 12.1971 8.54503V3.21003C12.1971 3.18219 12.2026 3.15462 12.2133 3.1289C12.2239 3.10318 12.2395 3.07981 12.2592 3.06012C12.2789 3.04044 12.3023 3.02482 12.328 3.01417C12.3537 3.00351 12.3813 2.99803 12.4091 2.99803C12.437 2.99803 12.4645 3.00351 12.4903 3.01417C12.516 3.02482 12.5394 3.04044 12.559 3.06012C12.5787 3.07981 12.5943 3.10318 12.605 3.1289C12.6157 3.15462 12.6211 3.18219 12.6211 3.21003V8.54503C12.6211 8.60125 12.5988 8.65518 12.559 8.69494C12.5193 8.73469 12.4654 8.75703 12.4091 8.75703Z" fill="#204F38"/>
<path d="M12.7763 5.97301H12.0763C11.8045 5.97301 11.544 5.86507 11.3518 5.67294C11.1597 5.48081 11.0518 5.22023 11.0518 4.94851C11.0518 4.6768 11.1597 4.41621 11.3518 4.22408C11.544 4.03195 11.8045 3.92401 12.0763 3.92401H13.5683C13.5961 3.92401 13.6237 3.92949 13.6494 3.94015C13.6751 3.9508 13.6985 3.96642 13.7182 3.9861C13.7379 4.00579 13.7535 4.02916 13.7641 4.05488C13.7748 4.0806 13.7803 4.10817 13.7803 4.13601C13.7803 4.16385 13.7748 4.19142 13.7641 4.21714C13.7535 4.24286 13.7379 4.26623 13.7182 4.28592C13.6985 4.3056 13.6751 4.32122 13.6494 4.33187C13.6237 4.34253 13.5961 4.34801 13.5683 4.34801H12.0763C11.9171 4.34801 11.7645 4.41122 11.652 4.52375C11.5395 4.63627 11.4763 4.78888 11.4763 4.94801C11.4763 5.10714 11.5395 5.25975 11.652 5.37227C11.7645 5.4848 11.9171 5.54801 12.0763 5.54801H12.7763C12.8325 5.54801 12.8864 5.57035 12.9262 5.6101C12.9659 5.64986 12.9883 5.70378 12.9883 5.76001C12.9883 5.81624 12.9659 5.87016 12.9262 5.90992C12.8864 5.94968 12.8325 5.97201 12.7763 5.97201V5.97301Z" fill="#204F38"/>
<path d="M12.7559 7.59399H11.2559C11.1997 7.59399 11.1458 7.57166 11.106 7.5319C11.0663 7.49214 11.0439 7.43822 11.0439 7.38199C11.0439 7.32577 11.0663 7.27184 11.106 7.23209C11.1458 7.19233 11.1997 7.16999 11.2559 7.16999H12.7559C12.9151 7.16999 13.0677 7.10678 13.1802 6.99426C13.2927 6.88174 13.3559 6.72912 13.3559 6.56999C13.3559 6.41086 13.2927 6.25825 13.1802 6.14573C13.0677 6.03321 12.9151 5.96999 12.7559 5.96999H12.2929C12.2367 5.96999 12.1828 5.94766 12.143 5.9079C12.1033 5.86814 12.0809 5.81422 12.0809 5.75799C12.0809 5.70177 12.1033 5.64785 12.143 5.60809C12.1828 5.56833 12.2367 5.54599 12.2929 5.54599H12.7559C13.027 5.54599 13.2869 5.65367 13.4786 5.84533C13.6703 6.03699 13.7779 6.29694 13.7779 6.56799C13.7779 6.83905 13.6703 7.099 13.4786 7.29066C13.2869 7.48232 13.027 7.58999 12.7559 7.58999V7.59399ZM12.4119 2.60099C12.2864 2.60099 12.1636 2.56375 12.0592 2.49398C11.9547 2.4242 11.8733 2.32503 11.8253 2.209C11.7772 2.09297 11.7646 1.96529 11.7891 1.84211C11.8136 1.71893 11.8741 1.60579 11.9629 1.51698C12.0517 1.42817 12.1649 1.3677 12.2881 1.3432C12.4112 1.31869 12.5389 1.33127 12.6549 1.37933C12.771 1.42739 12.8702 1.50878 12.9399 1.61321C13.0097 1.71763 13.0469 1.8404 13.0469 1.96599C13.0467 2.13432 12.9797 2.29569 12.8607 2.41471C12.7416 2.53374 12.5803 2.60073 12.4119 2.60099ZM12.4119 1.75399C12.37 1.75399 12.329 1.76643 12.2942 1.78972C12.2593 1.81302 12.2321 1.84613 12.2161 1.88487C12.2 1.9236 12.1958 1.96623 12.204 2.00735C12.2122 2.04848 12.2324 2.08625 12.262 2.1159C12.2917 2.14555 12.3295 2.16574 12.3706 2.17392C12.4117 2.1821 12.4543 2.1779 12.4931 2.16186C12.5318 2.14581 12.5649 2.11864 12.5882 2.08377C12.6115 2.04891 12.6239 2.00792 12.6239 1.96599C12.6229 1.91046 12.6001 1.85756 12.5605 1.81867C12.5208 1.77977 12.4675 1.75798 12.4119 1.75799V1.75399Z" fill="#204F38"/>
<path d="M8.81942 6.83702C8.93651 6.83702 9.03142 6.74211 9.03142 6.62502C9.03142 6.50794 8.93651 6.41302 8.81942 6.41302C8.70234 6.41302 8.60742 6.50794 8.60742 6.62502C8.60742 6.74211 8.70234 6.83702 8.81942 6.83702Z" fill="#204F38"/>
<path d="M16.0206 6.83702C16.1377 6.83702 16.2326 6.74211 16.2326 6.62502C16.2326 6.50794 16.1377 6.41302 16.0206 6.41302C15.9035 6.41302 15.8086 6.50794 15.8086 6.62502C15.8086 6.74211 15.9035 6.83702 16.0206 6.83702Z" fill="#204F38"/>
<path d="M8.81942 5.99004C8.93651 5.99004 9.03142 5.89512 9.03142 5.77804C9.03142 5.66096 8.93651 5.56604 8.81942 5.56604C8.70234 5.56604 8.60742 5.66096 8.60742 5.77804C8.60742 5.89512 8.70234 5.99004 8.81942 5.99004Z" fill="#204F38"/>
<path d="M8.81942 5.14299C8.93651 5.14299 9.03142 5.04808 9.03142 4.93099C9.03142 4.81391 8.93651 4.71899 8.81942 4.71899C8.70234 4.71899 8.60742 4.81391 8.60742 4.93099C8.60742 5.04808 8.70234 5.14299 8.81942 5.14299Z" fill="#204F38"/>
<path d="M16.0206 5.99004C16.1377 5.99004 16.2326 5.89512 16.2326 5.77804C16.2326 5.66096 16.1377 5.56604 16.0206 5.56604C15.9035 5.56604 15.8086 5.66096 15.8086 5.77804C15.8086 5.89512 15.9035 5.99004 16.0206 5.99004Z" fill="#204F38"/>
<path d="M16.0206 5.14299C16.1377 5.14299 16.2326 5.04808 16.2326 4.93099C16.2326 4.81391 16.1377 4.71899 16.0206 4.71899C15.9035 4.71899 15.8086 4.81391 15.8086 4.93099C15.8086 5.04808 15.9035 5.14299 16.0206 5.14299Z" fill="#204F38"/>
<path d="M9.88458 3.47561C9.98604 3.41717 10.0209 3.28755 9.96248 3.18609C9.90405 3.08463 9.77443 3.04975 9.67297 3.10818C9.57151 3.16662 9.53663 3.29624 9.59506 3.3977C9.6535 3.49916 9.78312 3.53404 9.88458 3.47561Z" fill="#204F38"/>
<path d="M10.619 3.05263C10.7204 2.9942 10.7553 2.86458 10.6969 2.76312C10.6384 2.66166 10.5088 2.62678 10.4073 2.68521C10.3059 2.74365 10.271 2.87327 10.3294 2.97473C10.3879 3.07619 10.5175 3.11107 10.619 3.05263Z" fill="#204F38"/>
<path d="M11.3533 2.62966C11.4548 2.57122 11.4897 2.4416 11.4312 2.34014C11.3728 2.23868 11.2432 2.2038 11.1417 2.26224C11.0403 2.32067 11.0054 2.45029 11.0638 2.55175C11.1222 2.65321 11.2519 2.68809 11.3533 2.62966Z" fill="#204F38"/>
<path d="M15.232 3.39692C15.2904 3.29546 15.2556 3.16584 15.1541 3.1074C15.0526 3.04897 14.923 3.08385 14.8646 3.18531C14.8062 3.28677 14.841 3.41639 14.9425 3.47482C15.044 3.53326 15.1736 3.49838 15.232 3.39692Z" fill="#204F38"/>
<path d="M14.4976 2.97394C14.5561 2.87248 14.5212 2.74286 14.4197 2.68443C14.3183 2.62599 14.1887 2.66087 14.1302 2.76233C14.0718 2.8638 14.1067 2.99342 14.2081 3.05185C14.3096 3.11028 14.4392 3.0754 14.4976 2.97394Z" fill="#204F38"/>
<path d="M13.7642 2.55091C13.8227 2.44945 13.7878 2.31983 13.6863 2.26139C13.5849 2.20296 13.4553 2.23784 13.3968 2.3393C13.3384 2.44076 13.3733 2.57038 13.4747 2.62881C13.5762 2.68725 13.7058 2.65237 13.7642 2.55091Z" fill="#204F38"/>
</svg>
